{
  "accessors": [
    {
      "bufferView": 2,
      "componentType": 5126,
      "count": 816,
      "max": [
        23.992500305175781,
        23.236560821533203,
        52.701728820800781
      ],
      "min": [
        -23.992500305175781,
        -28.924028396606445,
        0
      ],
      "type": "VEC3"
    },
    {
      "bufferView": 2,
      "byteOffset": 9792,
      "componentType": 5126,
      "count": 816,
      "max": [
        1,
        1,
        1
      ],
      "min": [
        -1,
        -1,
        -1
      ],
      "type": "VEC3"
    },
    {
      "bufferView": 1,
      "componentType": 5126,
      "count": 816,
      "max": [
        1,
        1
      ],
      "min": [
        0,
        0
      ],
      "type": "VEC2"
    },
    {
      "bufferView": 0,
      "componentType": 5125,
      "count": 1920,
      "max": [
        815
      ],
      "min": [
        0
      ],
      "type": "SCALAR"
    },
    {
      "bufferView": 2,
      "byteOffset": 19584,
      "componentType": 5126,
      "count": 24,
      "max": [
        5.5208969116210938,
        1.1230723857879639,
        0.73471999168395996
      ],
      "min": [
        -5.5208969116210938,
        -1.1230723857879639,
        0
      ],
      "type": "VEC3"
    },
    {
      "bufferView": 2,
      "byteOffset": 19872,
      "componentType": 5126,
      "count": 24,
      "max": [
        1,
        1,
        1
      ],
      "min": [
        -1,
        -1,
        -1
      ],
      "type": "VEC3"
    },
    {
      "bufferView": 1,
      "byteOffset": 6528,
      "componentType": 5126,
      "count": 24,
      "max": [
        1,
        1
      ],
      "min": [
        0,
        0
      ],
      "type": "VEC2"
    },
    {
      "bufferView": 0,
      "byteOffset": 7680,
      "componentType": 5125,
      "count": 36,
      "max": [
        23
      ],
      "min": [
        0
      ],
      "type": "SCALAR"
    },
    {
      "bufferView": 2,
      "byteOffset": 20160,
      "componentType": 5126,
      "count": 24,
      "max": [
        5.5208969116210938,
        1.1230723857879639,
        0.73471999168395996
      ],
      "min": [
        -5.5208969116210938,
        -1.1230723857879639,
        0
      ],
      "type": "VEC3"
    },
    {
      "bufferView": 2,
      "byteOffset": 20448,
      "componentType": 5126,
      "count": 24,
      "max": [
        1,
        1,
        1
      ],
      "min": [
        -1,
        -1,
        -1
      ],
      "type": "VEC3"
    },
    {
      "bufferView": 1,
      "byteOffset": 6720,
      "componentType": 5126,
      "count": 24,
      "max": [
        1,
        1
      ],
      "min": [
        0,
        0
      ],
      "type": "VEC2"
    },
    {
      "bufferView": 0,
      "byteOffset": 7824,
      "componentType": 5125,
      "count": 36,
      "max": [
        23
      ],
      "min": [
        0
      ],
      "type": "SCALAR"
    },
    {
      "bufferView": 2,
      "byteOffset": 20736,
      "componentType": 5126,
      "count": 24,
      "max": [
        5.5208969116210938,
        1.1230723857879639,
        0.73471999168395996
      ],
      "min": [
        -5.5208969116210938,
        -1.1230723857879639,
        0
      ],
      "type": "VEC3"
    },
    {
      "bufferView": 2,
      "byteOffset": 21024,
      "componentType": 5126,
      "count": 24,
      "max": [
        1,
        1,
        1
      ],
      "min": [
        -1,
        -1,
        -1
      ],
      "type": "VEC3"
    },
    {
      "bufferView": 1,
      "byteOffset": 6912,
      "componentType": 5126,
      "count": 24,
      "max": [
        1,
        1
      ],
      "min": [
        0,
        0
      ],
      "type": "VEC2"
    },
    {
      "bufferView": 0,
      "byteOffset": 7968,
      "componentType": 5125,
      "count": 36,
      "max": [
        23
      ],
      "min": [
        0
      ],
      "type": "SCALAR"
    },
    {
      "bufferView": 2,
      "byteOffset": 21312,
      "componentType": 5126,
      "count": 24,
      "max": [
        2.5,
        26.457937240600586,
        5
      ],
      "min": [
        -2.5,
        -26.457937240600586,
        0
      ],
      "type": "VEC3"
    },
    {
      "bufferView": 2,
      "byteOffset": 21600,
      "componentType": 5126,
      "count": 24,
      "max": [
        1,
        1,
        1
      ],
      "min": [
        -1,
        -1,
        -1
      ],
      "type": "VEC3"
    },
    {
      "bufferView": 1,
      "byteOffset": 7104,
      "componentType": 5126,
      "count": 24,
      "max": [
        1,
        1
      ],
      "min": [
        0,
        0
      ],
      "type": "VEC2"
    },
    {
      "bufferView": 0,
      "byteOffset": 8112,
      "componentType": 5125,
      "count": 36,
      "max": [
        23
      ],
      "min": [
        0
      ],
      "type": "SCALAR"
    },
    {
      "bufferView": 2,
      "byteOffset": 21888,
      "componentType": 5126,
      "count": 66,
      "max": [
        6.3992114067077637,
        6.3992114067077637,
        38.31231689453125
      ],
      "min": [
        -6.3992114067077637,
        -6.3992114067077637,
        0
      ],
      "type": "VEC3"
    },
    {
      "bufferView": 2,
      "byteOffset": 22680,
      "componentType": 5126,
      "count": 66,
      "max": [
        1,
        1,
        1
      ],
      "min": [
        -1,
        -1,
        -1
      ],
      "type": "VEC3"
    },
    {
      "bufferView": 1,
      "byteOffset": 7296,
      "componentType": 5126,
      "count": 66,
      "max": [
        1,
        1
      ],
      "min": [
        0,
        0
      ],
      "type": "VEC2"
    },
    {
      "bufferView": 0,
      "byteOffset": 8256,
      "componentType": 5125,
      "count": 132,
      "max": [
        65
      ],
      "min": [
        0
      ],
      "type": "SCALAR"
    }
  ],
  "asset": {
    "extras": {
      "author": "MRX (https://sketchfab.com/visitingskipertv)",
      "license": "CC-BY-4.0 (http://creativecommons.org/licenses/by/4.0/)",
      "source": "https://sketchfab.com/3d-models/little-low-poly-house-free-download-6198d1e97a2340bf92748fc4fdca0a71",
      "title": "Little Low Poly House / Free download"
    },
    "generator": "Sketchfab-7.91.0",
    "version": "2.0"
  },
  "bufferViews": [
    {
      "buffer": 0,
      "byteLength": 8784,
      "byteOffset": 0,
      "name": "floatBufferViews",
      "target": 34963
    },
    {
      "buffer": 0,
      "byteLength": 7824,
      "byteOffset": 8784,
      "byteStride": 8,
      "name": "floatBufferViews",
      "target": 34962
    },
    {
      "buffer": 0,
      "byteLength": 23472,
      "byteOffset": 16608,
      "byteStride": 12,
      "name": "floatBufferViews",
      "target": 34962
    }
  ],
  "buffers": [
    {
      "byteLength": 40080,
      "uri": "scene.bin"
    }
  ],
  "materials": [
    {
      "doubleSided": true,
      "emissiveFactor": [
        0,
        0,
        0
      ],
      "name": "02_-_Default",
      "pbrMetallicRoughness": {
        "baseColorFactor": [
          0.58823499999999995,
          0.58823499999999995,
          0.58823499999999995,
          1
        ],
        "metallicFactor": 0.72145852809999045,
        "roughnessFactor": 0
      }
    }
  ],
  "meshes": [
    {
      "name": "Box001_02 - Default_0",
      "primitives": [
        {
          "attributes": {
            "NORMAL": 1,
            "POSITION": 0,
            "TEXCOORD_0": 2
          },
          "indices": 3,
          "material": 0,
          "mode": 4
        }
      ]
    },
    {
      "name": "Box003_02 - Default_0",
      "primitives": [
        {
          "attributes": {
            "NORMAL": 5,
            "POSITION": 4,
            "TEXCOORD_0": 6
          },
          "indices": 7,
          "material": 0,
          "mode": 4
        }
      ]
    },
    {
      "name": "Box004_02 - Default_0",
      "primitives": [
        {
          "attributes": {
            "NORMAL": 9,
            "POSITION": 8,
            "TEXCOORD_0": 10
          },
          "indices": 11,
          "material": 0,
          "mode": 4
        }
      ]
    },
    {
      "name": "Box005_02 - Default_0",
      "primitives": [
        {
          "attributes": {
            "NORMAL": 13,
            "POSITION": 12,
            "TEXCOORD_0": 14
          },
          "indices": 15,
          "material": 0,
          "mode": 4
        }
      ]
    },
    {
      "name": "Box006_02 - Default_0",
      "primitives": [
        {
          "attributes": {
            "NORMAL": 17,
            "POSITION": 16,
            "TEXCOORD_0": 18
          },
          "indices": 19,
          "material": 0,
          "mode": 4
        }
      ]
    },
    {
      "name": "Box007_02 - Default_0",
      "primitives": [
        {
          "attributes": {
            "NORMAL": 21,
            "POSITION": 20,
            "TEXCOORD_0": 22
          },
          "indices": 23,
          "material": 0,
          "mode": 4
        }
      ]
    }
  ],
  "nodes": [
    {
      "children": [
        1
      ],
      "name": "RootNode (gltf orientation matrix)",
      "rotation": [
        -0.70710678118654746,
        -0,
        -0,
        0.70710678118654757
      ]
    },
    {
      "children": [
        2
      ],
      "name": "RootNode (model correction matrix)"
    },
    {
      "children": [
        3
      ],
      "matrix": [
        1,
        0,
        0,
        0,
        0,
        0,
        1,
        0,
        0,
        -1,
        0,
        0,
        0,
        0,
        0,
        1
      ],
      "name": "95c81323923b45828510bbafca02f61d.fbx"
    },
    {
      "children": [
        4,
        6,
        8,
        10,
        12,
        14
      ],
      "name": "RootNode"
    },
    {
      "children": [
        5
      ],
      "matrix": [
        1,
        0,
        0,
        0,
        0,
        2.2204460492503131e-16,
        -1,
        0,
        0,
        1,
        2.2204460492503131e-16,
        0,
        -26.862611770629883,
        0,
        -5.5957546234130859,
        1
      ],
      "name": "Box001"
    },
    {
      "mesh": 0,
      "name": "Box001_02 - Default_0"
    },
    {
      "children": [
        7
      ],
      "matrix": [
        5.3711575961996533e-07,
        1.1654809296299808e-23,
        1.1741499900816641,
        0,
        -6.8552396896941212e-08,
        1.1741499900817851,
        3.1359343377152225e-14,
        0,
        -3.2764298915859547,
        -1.9129338179137105e-07,
        1.4988052164769471e-06,
        0,
        -49.886928558349609,
        3.9745426177978516,
        -5.5745964050292969,
        1
      ],
      "name": "Box003"
    },
    {
      "mesh": 1,
      "name": "Box003_02 - Default_0"
    },
    {
      "children": [
        9
      ],
      "matrix": [
        5.3711575961996533e-07,
        1.1654809296299808e-23,
        1.1741499900816641,
        0,
        -6.8552396896941212e-08,
        1.1741499900817851,
        3.1359343377152225e-14,
        0,
        -3.2764298915859547,
        -1.9129338179137105e-07,
        1.4988052164769471e-06,
        0,
        -49.886928558349609,
        1.3372316360473633,
        -5.5745968818664551,
        1
      ],
      "name": "Box004"
    },
    {
      "mesh": 2,
      "name": "Box004_02 - Default_0"
    },
    {
      "children": [
        11
      ],
      "matrix": [
        5.3711575961996533e-07,
        1.1654809296299808e-23,
        1.1741499900816641,
        0,
        -6.8552396896941212e-08,
        1.1741499900817851,
        3.1359343377152225e-14,
        0,
        -3.2764298915859547,
        -1.9129338179137105e-07,
        1.4988052164769471e-06,
        0,
        -52.294181823730469,
        1.3372316360473633,
        -5.5745973587036133,
        1
      ],
      "name": "Box005"
    },
    {
      "mesh": 3,
      "name": "Box005_02 - Default_0"
    },
    {
      "children": [
        13
      ],
      "matrix": [
        -3.090861899757158e-08,
        0.70710675138422496,
        0.70710681098886807,
        0,
        0.999999999999999,
        3.3306690738754696e-16,
        4.3711386121803031e-08,
        0,
        3.0908616055480564e-08,
        0.70710681098886874,
        -0.70710675138422419,
        0,
        -27.00738525390625,
        49.202781677246094,
        -3.8273937702178955,
        1
      ],
      "name": "Box006"
    },
    {
      "mesh": 4,
      "name": "Box006_02 - Default_0"
    },
    {
      "children": [
        15
      ],
      "matrix": [
        0.85167998075485229,
        0,
        0,
        0,
        0,
        1.8911094484926945e-16,
        -0.85167998075485229,
        0,
        0,
        0.56156998872756958,
        1.2469358628476747e-16,
        0,
        -32.906238555908203,
        38.683753967285156,
        6.349146842956543,
        1
      ],
      "name": "Box007"
    },
    {
      "mesh": 5,
      "name": "Box007_02 - Default_0"
    }
  ],
  "scene": 0,
  "scenes": [
    {
      "name": "OSG_Scene",
      "nodes": [
        0
      ]
    }
  ]
}

